<?xml version="1.0" encoding="UTF-8"?>
<svg id="Calque_1" data-name="Calque 1" xmlns="http://www.w3.org/2000/svg" viewBox="0 0 1366 768">
  <defs>
    <style>
      .cls-1 {
        fill: #b9c5cc;
      }
    </style>
  </defs>
  <path class="cls-1" d="m1342.45,0H23.55C10.55,0,0,7.46,0,16.7v734.61c0,9.23,10.55,16.7,23.55,16.7h1318.9c13,0,23.55-7.46,23.55-16.7V16.7c0-9.23-10.55-16.7-23.55-16.7Zm-23.55,734.61H47.1V33.39h1271.79v701.22Z"/>
  <path class="cls-1" d="m376.83,369.61c72.33,0,131.16-41.71,131.16-92.96s-58.83-92.99-131.16-92.99-131.16,41.71-131.16,92.98,58.83,92.98,131.16,92.98Zm0-152.56c46.35,0,84.06,26.75,84.06,59.59s-37.71,59.59-84.06,59.59-84.06-26.73-84.06-59.57,37.71-59.6,84.06-59.6Z"/>
  <path class="cls-1" d="m164.86,667.83c5.51,0,11.07-1.37,15.54-4.16l384.2-239.78,242.63,171.98c9.21,6.53,24.09,6.53,33.3,0,9.21-6.53,9.21-17.08,0-23.61l-113.21-80.26,216.23-167.86,265.22,172.35c9.59,6.23,24.49,5.76,33.28-1.04,8.78-6.8,8.15-17.36-1.46-23.59l-282.62-183.65c-4.62-2.99-10.76-4.47-16.96-4.37-6.24.2-12.13,2.15-16.34,5.43l-230.67,179.09-111.71-79.19c-8.81-6.23-22.89-6.54-32.22-.73l-400.78,250.15c-9.77,6.09-10.72,16.65-2.12,23.57,4.66,3.76,11.16,5.66,17.69,5.66Z"/>
</svg>