<svg width="58" height="58" viewBox="0 0 58 58" fill="none" xmlns="http://www.w3.org/2000/svg">
<path d="M57 6H1C0.448 6 0 6.447 0 7V51C0 51.553 0.448 52 1 52H57C57.552 52 58 51.553 58 51V7C58 6.447 57.552 6 57 6ZM56 50H2V8H56V50Z" fill="#B9C5CC"/>
<path d="M16 28.138C19.071 28.138 21.569 25.64 21.569 22.57C21.569 19.498 19.071 17 16 17C12.929 17 10.431 19.498 10.431 22.569C10.431 25.64 12.929 28.138 16 28.138ZM16 19C17.968 19 19.569 20.602 19.569 22.569C19.569 24.536 17.968 26.138 16 26.138C14.032 26.138 12.431 24.537 12.431 22.57C12.431 20.603 14.032 19 16 19Z" fill="#B9C5CC"/>
<path d="M7.00004 46C7.23404 46 7.47004 45.918 7.66004 45.751L23.973 31.389L34.275 41.69C34.666 42.081 35.298 42.081 35.689 41.69C36.08 41.299 36.08 40.667 35.689 40.276L30.882 35.469L40.063 25.415L51.324 35.738C51.731 36.111 52.364 36.083 52.737 35.676C53.11 35.269 53.083 34.636 52.675 34.263L40.675 23.263C40.479 23.084 40.218 22.995 39.955 23.001C39.69 23.013 39.44 23.13 39.261 23.326L29.467 34.053L24.724 29.31C24.35 28.937 23.752 28.918 23.356 29.266L6.33904 44.249C5.92404 44.614 5.88404 45.246 6.24904 45.661C6.44704 45.886 6.72304 46 7.00004 46Z" fill="#B9C5CC"/>
</svg>
