<svg width="17" height="17" viewBox="0 0 17 17" fill="none" xmlns="http://www.w3.org/2000/svg">
<rect width="17" height="17" rx="2" fill="black"/>
<path d="M14.2364 7.81583L12.9733 6.55272C12.8289 6.40818 12.6114 6.36503 12.4227 6.44318C12.2339 6.52139 12.1108 6.7056 12.1108 6.90996V7.66783H9.33199V4.88898H10.0899C10.2942 4.88898 10.4784 4.76587 10.5566 4.57707C10.6348 4.38828 10.5916 4.17096 10.4471 4.02646L9.18399 2.76334C8.98671 2.56603 8.66679 2.56603 8.46947 2.76334L7.20636 4.02646C7.06186 4.17096 7.01865 4.38828 7.09683 4.57707C7.17504 4.76587 7.35928 4.88898 7.5636 4.88898H8.3215V7.66783H5.54266V6.90996C5.54266 6.7056 5.41955 6.52136 5.23076 6.44318C5.04193 6.365 4.82461 6.40822 4.68014 6.55272L3.41703 7.81583C3.21971 8.01314 3.21971 8.33303 3.41703 8.53035L4.68014 9.79346C4.77681 9.89013 4.90598 9.94146 5.03752 9.94146C5.10259 9.94146 5.16824 9.92887 5.23076 9.903C5.41955 9.82479 5.54266 9.64054 5.54266 9.43622V8.67832H8.3215V11.4572H7.56364C7.35928 11.4572 7.17504 11.5803 7.09686 11.7691C7.01868 11.9579 7.0619 12.1752 7.2064 12.3197L8.46951 13.5828C8.56813 13.6815 8.69744 13.7308 8.82675 13.7308C8.95606 13.7308 9.08537 13.6815 9.18399 13.5828L10.4471 12.3197C10.5916 12.1752 10.6348 11.9578 10.5566 11.769C10.4784 11.5802 10.2942 11.4571 10.0899 11.4571H9.33199V8.67832H12.1108V9.43618C12.1108 9.64054 12.2339 9.82479 12.4227 9.90296C12.4852 9.92887 12.5509 9.94143 12.616 9.94143C12.7474 9.94143 12.8767 9.8901 12.9733 9.79343L14.2364 8.53031C14.4338 8.33303 14.4338 8.01314 14.2364 7.81583Z" fill="white"/>
</svg>
