<svg width="70" height="61" viewBox="0 0 70 61" fill="none" xmlns="http://www.w3.org/2000/svg">
<path d="M60.5517 6.88793C61.7228 6.88793 62.681 7.84612 62.681 9.01724V51.5768L62.0156 50.7118L43.9165 27.2894C43.3176 26.5042 42.3727 26.0517 41.3879 26.0517C40.4031 26.0517 39.4715 26.5042 38.8594 27.2894L27.8136 41.5824L23.7546 35.8998C23.1557 35.0614 22.1975 34.569 21.1595 34.569C20.1214 34.569 19.1632 35.0614 18.5644 35.9131L7.91783 50.8183L7.31896 51.6434V51.6034V9.01724C7.31896 7.84612 8.27715 6.88793 9.44827 6.88793H60.5517ZM9.44827 0.5C4.75048 0.5 0.93103 4.31945 0.93103 9.01724V51.6034C0.93103 56.3012 4.75048 60.1207 9.44827 60.1207H60.5517C65.2495 60.1207 69.069 56.3012 69.069 51.6034V9.01724C69.069 4.31945 65.2495 0.5 60.5517 0.5H9.44827ZM20.0948 26.0517C20.9337 26.0517 21.7644 25.8865 22.5394 25.5655C23.3144 25.2444 24.0186 24.7739 24.6118 24.1807C25.2049 23.5876 25.6755 22.8834 25.9965 22.1083C26.3175 21.3333 26.4828 20.5027 26.4828 19.6638C26.4828 18.8249 26.3175 17.9943 25.9965 17.2192C25.6755 16.4442 25.2049 15.74 24.6118 15.1468C24.0186 14.5537 23.3144 14.0831 22.5394 13.7621C21.7644 13.4411 20.9337 13.2759 20.0948 13.2759C19.2559 13.2759 18.4253 13.4411 17.6503 13.7621C16.8752 14.0831 16.171 14.5537 15.5779 15.1468C14.9847 15.74 14.5142 16.4442 14.1931 17.2192C13.8721 17.9943 13.7069 18.8249 13.7069 19.6638C13.7069 20.5027 13.8721 21.3333 14.1931 22.1083C14.5142 22.8834 14.9847 23.5876 15.5779 24.1807C16.171 24.7739 16.8752 25.2444 17.6503 25.5655C18.4253 25.8865 19.2559 26.0517 20.0948 26.0517Z" fill="#B9C5CC"/>
</svg>
